The Big Bang Theory - S03E04 - Für ihn oder mit ihm (The Pirate Solution)


Inhalt:
---
Thanksgiving steht vor der Tür und Penny lädt alle ein um bei ihr zu essen. Doch Raj bricht bei der Einladung in Tränen aus. Er soll ausgewiesen werden, weil sein Visum nicht verlängert wird. Allerdings ist Raj nicht ganz unschuldig, denn die letzten Monate hat er nicht besonders viel gearbeitet. Eine Lösung wäre, wenn er eine neue Anstellung bei der Universität findet. Doch dies endet in einem Desaster. Es bleibt Raj wohl nichts weiter übrig, als für Sheldon zu arbeiten. Raj bevorzugt den Term mit Sheldon arbeiten, Sheldon sieht es eher als für Sheldon arbeiten. Doch werden sie die beiden Freunde auch beruflich verstehen?


Video: Xvid 624x352 25.00fps 1024kbps
Audio: MPEG Audio Layer 3 48000Hz stereo 160kbps

-------------------------

Format : AVI
Format/Info : Audio Video Interleave
File size : 175 MiB
Duration : 20mn 26s
Overall bit rate : 1 197 Kbps
Writing application : MEncoder Sherpya-SVN-r30075-4.2.5
Writing library : MPlayer
Copyright : SOF

Video
ID : 0
Format : MPEG-4 Visual
Format profile : Advanced Simple@L5
Format settings, BVOP : Yes
Format settings, QPel : No
Format settings, GMC : No warppoints
Format settings, Matrix : Default (H.263)
Codec ID : XVID
Codec ID/Hint : XviD
Duration : 20mn 25s
Bit rate : 1 024 Kbps
Width : 624 pixels
Height : 352 pixels
Display aspect ratio : 16:9
Frame rate : 25.000 fps
Color space : YUV
Chroma subsampling : 4:2:0
Bit depth : 8 bits
Scan type : Progressive
Bits/(Pixel*Frame) : 0.187
Stream size : 150 MiB (86%)
Writing library : XviD 1.2.1 (UTC 2008-12-04)

Audio
ID : 1
Format : MPEG Audio
Format version : Version 1
Format profile : Layer 3
Codec ID : 55
Codec ID/Hint : MP3
Duration : 20mn 26s
Bit rate mode : Variable
Bit rate : 160 Kbps
Channel(s) : 2 channels
Sampling rate : 48.0 KHz
Bit depth : 16 bits
Stream size : 23.4 MiB (13%)
Alignment : Aligned on interleaves
Interleave, duration : 24 ms (0.60 video frame)
Interleave, preload duration : 119 ms
